<?xml version="1.0" encoding="UTF-8"?>
<svg width="30px" height="30px" viewBox="0 0 30 30" version="1.1" xmlns="http://www.w3.org/2000/svg" xmlns:xlink="http://www.w3.org/1999/xlink">
    <!-- Generator: Sketch 50.2 (55047) - http://www.bohemiancoding.com/sketch -->
    <title>facebook</title>
    <desc>Created with Sketch.</desc>
    <defs></defs>
    <g id="Page-1" stroke="none" stroke-width="1" fill="none" fill-rule="evenodd">
        <g id="facebook" fill-rule="nonzero">
            <path d="M28.3448276,0 L1.65517241,0 C0.741045931,-5.59741036e-17 1.11948207e-16,0.741045931 0,1.65517241 L0,28.3448276 C1.11948207e-16,29.258954 0.741045931,30 1.65517241,30 L16.0344828,30 L16.0344828,18.3982759 L12.1293103,18.3982759 L12.1293103,13.8568966 L16.0344828,13.8568966 L16.0344828,10.5155172 C16.0344828,6.64137931 18.4034483,4.53103448 21.8586206,4.53103448 C23.0229692,4.52849526 24.1866455,4.58719703 25.3448276,4.70689655 L25.3448276,8.75689655 L22.9655172,8.75689655 C21.0827586,8.75689655 20.7155172,9.64655172 20.7155172,10.9603448 L20.7155172,13.8517241 L25.2155172,13.8517241 L24.6310345,18.3931034 L20.6896552,18.3931034 L20.6896552,30 L28.3448276,30 C29.258954,30 30,29.258954 30,28.3448276 L30,1.65517241 C30,0.741045931 29.258954,5.59741036e-17 28.3448276,0 Z" id="Shape" fill="#4267B2"></path>
            <path d="M20.6896552,30 L20.6896552,18.3982759 L24.6051724,18.3982759 L25.1896552,13.8568966 L20.6896552,13.8568966 L20.6896552,10.9655172 C20.6896552,9.65172414 21.0568966,8.76206897 22.9396552,8.76206897 L25.3448276,8.76206897 L25.3448276,4.70689655 C24.1849295,4.58701576 23.0195219,4.52831375 21.8534483,4.53103448 C18.3931034,4.53103448 16.0344828,6.64137931 16.0344828,10.5155172 L16.0344828,13.8568966 L12.1293103,13.8568966 L12.1293103,18.3982759 L16.0344828,18.3982759 L16.0344828,30 L20.6896552,30 Z" id="f" fill="#FFFFFF"></path>
        </g>
    </g>
</svg>