<?xml version="1.0" encoding="UTF-8"?>
<svg width="36px" height="30px" viewBox="0 0 36 30" version="1.1" xmlns="http://www.w3.org/2000/svg" xmlns:xlink="http://www.w3.org/1999/xlink">
    <!-- Generator: Sketch 50.2 (55047) - http://www.bohemiancoding.com/sketch -->
    <title>Twitter_Logo_Blue</title>
    <desc>Created with Sketch.</desc>
    <defs></defs>
    <g id="Page-1" stroke="none" stroke-width="1" fill="none" fill-rule="evenodd">
        <g id="Twitter_Logo_Blue" fill="#1DA1F2" fill-rule="nonzero">
            <path d="M11.32128,29.2521154 C24.90624,29.2521154 32.33664,17.9970754 32.33664,8.23675541 C32.33664,7.91707541 32.33664,7.59883541 32.31504,7.28203541 C33.7605571,6.23646703 35.0083519,4.94186173 36,3.45883541 C34.6519859,4.05614996 33.2219941,4.44786866 31.75776,4.62091541 C33.2996314,3.69784957 34.4536178,2.24602706 35.00496,0.535635406 C33.5551068,1.39597106 31.9689304,2.00229271 30.31488,2.32843541 C28.0253992,-0.106036833 24.3874358,-0.701882473 21.4409509,0.875014501 C18.494466,2.45191147 16.972236,5.80938445 17.72784,9.06475541 C11.7891299,8.76703474 6.25604513,5.96202091 2.5056,1.34779541 C0.54521677,4.72264381 1.54654255,9.04007305 4.79232,11.2074754 C3.61690733,11.1726383 2.4671223,10.8555584 1.44,10.2829954 C1.44,10.3132354 1.44,10.3449154 1.44,10.3765954 C1.44096211,13.8924893 3.91932215,16.920726 7.3656,17.6169154 C6.27821221,17.9134691 5.13731604,17.9568192 4.03056,17.7436354 C4.99816501,20.7524042 7.77106736,22.8135642 10.93104,22.8729154 C8.31561846,24.9284174 5.08472569,26.0442673 1.75824,26.0409154 C1.17058114,26.0397872 0.583493854,26.0042062 0,25.9343554 C3.37771577,28.1019536 7.3078753,29.2517077 11.32128,29.2463554" id="Shape"></path>
        </g>
    </g>
</svg>